PathFileType	4	(x/y/z)	S08_PSF_T13
DataRate	CameraRate	NumFrames	NumMarkers	Units	OrigDataRate	OrigDataStartFrame	OrigNumFrames
240	240	6	51	mm	240	159	422
Frame#	Time	Sternum			R.Acromium			L.Acromium			Top.Head			R.ASIS			L.ASIS			R.PSIS			L.PSIS			R.Great.Tro			L.Great.Tro			R.Iliac.Crest			L.Iliac.Crest			V.Sacral			R.Thigh.Upper.Post			R.Thigh.Lower.Ant			R.Thigh.Lower.Post			R.Thigh.Upper.Ant			R.Knee.Lat			R.Knee.Med			R.Shank.Upper.Post			R.Shank.Lower.Ant			R.Shank.Lower.Post			R.Shank.Upper.Ant			R.Ankle.Lat			R.Ankle.Med			R.Heel.Upper			R.Heel.Med			R.Heel.Lat			R.Toe.Lat			R.Toe.Med			R.Toe.Tip			L.Thigh.Upper.Post			L.Thigh.Lower.Ant			L.Thigh.Lower.Post			L.Thigh.Upper.Ant			L.Knee.Lat			L.Knee.Med			L.Shank.Upper.Post			L.Shank.Lower.Ant			L.Shank.Lower.Post			L.Shank.Upper.Ant			L.Ankle.Lat			L.Ankle.Med			L.Heel.Upper			L.Heel.Med			L.Heel.Lat			L.Toe.Lat			L.Toe.Med			L.Toe.Tip			Cervical.Spine			Back			
		X1	Y1	Z1	X2	Y2	Z2	X3	Y3	Z3	X4	Y4	Z4	X5	Y5	Z5	X6	Y6	Z6	X7	Y7	Z7	X8	Y8	Z8	X9	Y9	Z9	X10	Y10	Z10	X11	Y11	Z11	X12	Y12	Z12	X13	Y13	Z13	X14	Y14	Z14	X15	Y15	Z15	X16	Y16	Z16	X17	Y17	Z17	X18	Y18	Z18	X19	Y19	Z19	X20	Y20	Z20	X21	Y21	Z21	X22	Y22	Z22	X23	Y23	Z23	X24	Y24	Z24	X25	Y25	Z25	X26	Y26	Z26	X27	Y27	Z27	X28	Y28	Z28	X29	Y29	Z29	X30	Y30	Z30	X31	Y31	Z31	X32	Y32	Z32	X33	Y33	Z33	X34	Y34	Z34	X35	Y35	Z35	X36	Y36	Z36	X37	Y37	Z37	X38	Y38	Z38	X39	Y39	Z39	X40	Y40	Z40	X41	Y41	Z41	X42	Y42	Z42	X43	Y43	Z43	X44	Y44	Z44	X45	Y45	Z45	X46	Y46	Z46	X47	Y47	Z47	X48	Y48	Z48	X49	Y49	Z49	X50	Y50	Z50	X51	Y51	Z51	

159	0.65833	-630.95	1211.6	338.36	-756.88	1446.9	512.4	-762.12	1477.6	178.18	-749.01	1767.5	359.34	-647.03	1002.5	441.14	-648.31	997.29	207.69	-851.85	1022.3	369.33	-846.35	1026.4	276.82	-700.4	896.76	512.92	-756.34	891.18	145.73	-744.96	1068.2	489.79	-744.21	1080	180.94	-866.23	984.25	322.45	-660.98	700.5	494.48	-561.9	628.54	451.97	-630.56	616.82	471.1	-586.44	718.1	474.57	-566.08	527.21	443.27	-608.32	521.35	323.44	-599.49	333.34	454.11	-532.17	280.72	423.82	-589.16	257.14	444.98	-542.09	358.11	436.09	-568.69	92.538	403.1	-542.62	114.08	324.55	-613.95	63.193	352.03	-599.25	37.45	324.6	-607.03	38.463	386.09	NaN	NaN	NaN	-416.28	53.64	315.23	-354.95	80.383	360.28	-805.39	694.15	164.24	-730.12	592.47	175.34	-799.16	603.81	176.67	-735.05	679.48	158.47	-809.21	501.52	190.74	-791.47	491.55	314.67	-963.68	400.06	190.19	-970.02	289.69	204.71	-1013.8	346.89	205.5	-922.59	349.06	191.14	-1109.5	198.39	217.49	-1085	189.13	300.18	-1162.7	220.13	265.7	-1176.8	192.32	300.14	-1179.7	194.34	235.77	-1077.7	56.598	213.96	-1054.8	59.399	327.35	-1003.1	37.115	283.76	-824.03	1506.1	337.62	-867.4	1220.9	340.78
160	0.6625	-625.3	1212.3	338.69	-751.27	1447.4	512.77	-756.59	1478.2	178.55	-743.56	1768	359.76	-641.26	1003.3	441.62	-642.38	997.58	208.22	-846.05	1022.8	369.48	-840.45	1026.7	276.96	-694.59	897.64	513.48	-749.88	890.98	146.22	-739.32	1069	490.08	-738.3	1080.2	181.22	-860.35	984.63	322.68	-655.61	701.11	495.19	-556.84	628.86	452.38	-625.47	617.34	471.81	-581.07	718.51	474.96	-561.56	527.27	443.63	-603.91	521.73	323.86	-596.45	333.54	454.53	-529.63	280.41	423.96	-586.75	257.28	445.3	-538.89	357.88	436.34	-568.05	92.62	403.09	-541.86	113.98	324.62	-613.65	63.453	352.11	-599.1	37.66	324.64	-606.85	38.672	386.15	NaN	NaN	NaN	-415.94	52.607	315.14	-354.37	78.882	360.14	-797.11	693.12	164.41	-720.75	592.19	175.05	-789.76	602.87	176.4	-726.69	679.19	158.59	-798.8	500.81	190.14	-780.54	490.38	314.2	-953.83	401.37	189.58	-961.91	290.97	203.89	-1004.7	348.85	204.86	-913.41	349.85	190.44	-1102	202.09	216.31	-1078	192.28	299.26	-1154.2	225.84	264.36	-1169.3	198.75	298.9	-1172.1	200.67	234.5	-1075	59	213.44	-1052.4	61.446	326.82	-1001.8	36.633	283.48	-818.57	1506.6	338.06	-861.73	1221.3	341.15
161	0.66667	-619.7	1212.9	338.97	-745.66	1448	513.12	-751.09	1478.7	178.92	-738.1	1768.5	360.17	-635.55	1004	442.12	-636.52	997.9	208.74	-840.29	1023.4	369.65	-834.63	1026.9	277.11	-688.85	898.52	514.04	-743.48	890.8	146.7	-733.74	1069.9	490.36	-732.47	1080.5	181.49	-854.53	985.02	322.93	-650.39	701.7	495.89	-551.95	629.11	452.82	-620.56	617.83	472.5	-575.83	718.86	475.39	-557.19	527.31	443.99	-599.63	522.11	324.26	-593.52	333.75	454.92	-527.21	280.11	424.08	-584.44	257.43	445.59	-535.81	357.66	436.58	-567.48	92.716	403.07	-541.19	113.89	324.67	-613.39	63.684	352.19	-598.96	37.852	324.67	-606.69	38.862	386.19	NaN	NaN	NaN	-415.64	51.688	315.04	-353.86	77.533	360.01	-788.78	692.12	164.57	-711.31	591.97	174.77	-780.28	601.97	176.13	-718.28	678.95	158.71	-788.26	500.14	189.55	-769.49	489.28	313.77	-943.8	402.69	188.98	-953.57	292.3	203.08	-995.34	350.82	204.23	-904.04	350.67	189.77	-1094.2	205.81	215.14	-1070.7	195.46	298.37	-1145.3	231.52	263.01	-1161.5	205.17	297.65	-1164.1	207.01	233.23	-1072	61.552	212.89	-1049.6	63.628	326.26	-1000.2	36.17	283.15	-813.11	1507.1	338.5	-856.09	1221.8	341.52
162	0.67083	-614.13	1213.6	339.23	-740.05	1448.6	513.45	-745.63	1479.3	179.26	-732.66	1769.1	360.58	-629.88	1004.8	442.62	-630.73	998.24	209.26	-834.58	1023.9	369.83	-828.87	1027.2	277.26	-683.18	899.38	514.6	-737.12	890.64	147.2	-728.2	1070.7	490.65	-726.71	1080.7	181.76	-848.77	985.41	323.19	-645.32	702.26	496.56	-547.21	629.31	453.28	-615.81	618.29	473.17	-570.73	719.16	475.85	-552.98	527.32	444.35	-595.47	522.49	324.64	-590.72	333.95	455.29	-524.9	279.83	424.19	-582.25	257.58	445.84	-532.86	357.43	436.8	-566.96	92.826	403.03	-540.6	113.83	324.7	-613.15	63.887	352.25	-598.84	38.026	324.69	-606.55	39.033	386.23	NaN	NaN	NaN	-415.38	50.876	314.94	-353.4	76.323	359.88	-780.4	691.15	164.72	-701.82	591.81	174.5	-770.74	601.11	175.87	-709.81	678.76	158.81	-777.61	499.54	188.97	-758.36	488.25	313.37	-933.58	404.03	188.4	-945.01	293.69	202.3	-985.79	352.79	203.62	-894.48	351.52	189.13	-1086.2	209.52	213.97	-1063.1	198.63	297.5	-1136.1	237.16	261.68	-1153.4	211.55	296.41	-1155.7	213.32	231.97	-1068.8	64.239	212.32	-1046.6	65.932	325.65	-998.5	35.742	282.76	-807.67	1507.6	338.93	-850.49	1222.3	341.89
163	0.675	-608.6	1214.3	339.45	-734.43	1449.2	513.76	-740.2	1480	179.59	-727.22	1769.6	360.97	-624.25	1005.6	443.12	-625	998.59	209.77	-828.92	1024.5	370.01	-823.18	1027.5	277.43	-677.59	900.23	515.16	-730.83	890.5	147.7	-722.69	1071.6	490.93	-721.02	1081	182.03	-843.06	985.82	323.46	-640.41	702.79	497.2	-542.63	629.45	453.75	-611.25	618.72	473.79	-565.77	719.4	476.34	-548.93	527.31	444.69	-591.46	522.87	325.01	-588.05	334.15	455.61	-522.71	279.56	424.29	-580.18	257.74	446.06	-530.05	357.21	437.01	-566.5	92.945	402.98	-540.08	113.79	324.71	-612.95	64.064	352.29	-598.72	38.183	324.7	-606.43	39.189	386.26	NaN	NaN	NaN	-415.15	50.162	314.85	-353	75.24	359.75	-771.98	690.23	164.87	-692.28	591.72	174.26	-761.16	600.3	175.62	-701.29	678.64	158.91	-766.85	499.01	188.41	-747.16	487.31	313.01	-923.19	405.38	187.85	-936.25	295.13	201.54	-976.05	354.77	203.02	-884.75	352.41	188.53	-1078	213.22	212.81	-1055.2	201.79	296.64	-1126.5	242.72	260.37	-1144.8	217.85	295.18	-1147	219.56	230.73	-1065.2	67.045	211.73	-1043.2	68.343	325.01	-996.49	35.365	282.31	-802.24	1508.2	339.36	-844.92	1222.8	342.26
164	0.67917	-603.1	1214.9	339.65	-728.81	1449.8	514.05	-734.81	1480.6	179.9	-721.79	1770.2	361.36	-618.67	1006.4	443.62	-619.34	998.96	210.28	-823.31	1025.1	370.22	-817.55	1027.8	277.61	-672.07	901.06	515.72	-724.59	890.39	148.21	-717.21	1072.4	491.21	-715.4	1081.2	182.3	-837.42	986.24	323.76	-635.65	703.29	497.79	-538.22	629.52	454.22	-606.88	619.11	474.38	-560.95	719.58	476.84	-545.03	527.28	445.01	-587.6	523.25	325.35	-585.51	334.34	455.9	-520.63	279.29	424.37	-578.22	257.89	446.25	-527.37	357	437.19	-566.09	93.073	402.91	-539.61	113.76	324.7	-612.78	64.217	352.33	-598.62	38.322	324.71	-606.33	39.329	386.28	NaN	NaN	NaN	-414.94	49.534	314.75	-352.64	74.27	359.63	-763.53	689.36	165.02	-682.7	591.72	174.05	-751.55	599.56	175.4	-692.72	678.59	159.01	-756	498.56	187.87	-735.92	486.47	312.69	-912.65	406.75	187.32	-927.28	296.63	200.81	-966.13	356.76	202.45	-874.85	353.33	187.96	-1069.5	216.88	211.68	-1047.2	204.93	295.81	-1116.7	248.16	259.09	-1136	224.04	293.99	-1138	225.71	229.53	-1061.4	69.952	211.12	-1039.5	70.844	324.33	-994.18	35.059	281.8	-796.81	1508.8	339.78	-839.39	1223.4	342.63
